<svg width="19" height="24" viewBox="0 0 19 24" fill="none" xmlns="http://www.w3.org/2000/svg">
<path d="M9.62357 7.22198C8.74757 7.22198 7.39157 6.22598 5.96357 6.26198C4.07957 6.28598 2.35157 7.35397 1.37957 9.04597C-0.576427 12.442 0.875573 17.458 2.78357 20.218C3.71957 21.562 4.82357 23.074 6.28757 23.026C7.69157 22.966 8.21957 22.114 9.92357 22.114C11.6156 22.114 12.0956 23.026 13.5836 22.99C15.0956 22.966 16.0556 21.622 16.9796 20.266C18.0476 18.706 18.4916 17.194 18.5156 17.11C18.4796 17.098 15.5756 15.982 15.5396 12.622C15.5156 9.81397 17.8316 8.46998 17.9396 8.40998C16.6196 6.47798 14.5916 6.26198 13.8836 6.21398C12.0356 6.06998 10.4876 7.22198 9.62357 7.22198V7.22198ZM12.7436 4.38998C13.5236 3.45398 14.0396 2.14598 13.8956 0.849976C12.7796 0.897976 11.4356 1.59398 10.6316 2.52998C9.91157 3.35798 9.28757 4.68998 9.45557 5.96198C10.6916 6.05798 11.9636 5.32598 12.7436 4.38998V4.38998Z" fill="black"/>
</svg>
