<svg width="18" height="18" viewBox="0 0 18 18" fill="none" xmlns="http://www.w3.org/2000/svg">
<path d="M8.99984 6.78695C8.3368 6.78695 7.70091 7.05034 7.23207 7.51918C6.76323 7.98802 6.49984 8.62391 6.49984 9.28695C6.49984 9.94999 6.76323 10.5859 7.23207 11.0547C7.70091 11.5236 8.3368 11.7869 8.99984 11.7869C9.66288 11.7869 10.2988 11.5236 10.7676 11.0547C11.2364 10.5859 11.4998 9.94999 11.4998 9.28695C11.4998 8.62391 11.2364 7.98802 10.7676 7.51918C10.2988 7.05034 9.66288 6.78695 8.99984 6.78695ZM8.99984 5.12028C10.1049 5.12028 11.1647 5.55927 11.9461 6.34067C12.7275 7.12207 13.1665 8.18188 13.1665 9.28695C13.1665 10.392 12.7275 11.4518 11.9461 12.2332C11.1647 13.0146 10.1049 13.4536 8.99984 13.4536C7.89477 13.4536 6.83496 13.0146 6.05356 12.2332C5.27216 11.4518 4.83317 10.392 4.83317 9.28695C4.83317 8.18188 5.27216 7.12207 6.05356 6.34067C6.83496 5.55927 7.89477 5.12028 8.99984 5.12028ZM14.4165 4.91195C14.4165 5.18821 14.3068 5.45317 14.1114 5.64852C13.9161 5.84387 13.6511 5.95361 13.3748 5.95361C13.0986 5.95361 12.8336 5.84387 12.6383 5.64852C12.4429 5.45317 12.3332 5.18821 12.3332 4.91195C12.3332 4.63568 12.4429 4.37073 12.6383 4.17538C12.8336 3.98003 13.0986 3.87028 13.3748 3.87028C13.6511 3.87028 13.9161 3.98003 14.1114 4.17538C14.3068 4.37073 14.4165 4.63568 14.4165 4.91195ZM8.99984 2.62028C6.93817 2.62028 6.60151 2.62611 5.64234 2.66861C4.98901 2.69945 4.55067 2.78695 4.144 2.94528C3.80368 3.07023 3.49602 3.2705 3.244 3.53111C2.98318 3.78311 2.78263 4.09077 2.65734 4.43111C2.499 4.83945 2.4115 5.27695 2.3815 5.92945C2.33817 6.84945 2.33317 7.17111 2.33317 9.28695C2.33317 11.3486 2.339 11.6853 2.3815 12.6444C2.41234 13.2969 2.49984 13.7361 2.65734 14.1419C2.799 14.5044 2.96567 14.7653 3.24234 15.0419C3.52317 15.3219 3.784 15.4894 4.14234 15.6278C4.554 15.7869 4.99234 15.8753 5.64234 15.9053C6.56234 15.9486 6.88401 15.9536 8.99984 15.9536C11.0615 15.9536 11.3982 15.9478 12.3573 15.9053C13.009 15.8744 13.4482 15.7869 13.8548 15.6294C14.1946 15.5039 14.5021 15.304 14.7548 15.0444C15.0357 14.7636 15.2032 14.5028 15.3415 14.1444C15.4998 13.7336 15.5882 13.2944 15.6182 12.6444C15.6615 11.7244 15.6665 11.4028 15.6665 9.28695C15.6665 7.22528 15.6607 6.88861 15.6182 5.92945C15.5873 5.27778 15.4998 4.83778 15.3415 4.43111C15.2159 4.09112 15.0157 3.78358 14.7557 3.53111C14.5038 3.27015 14.1961 3.06959 13.8557 2.94445C13.4473 2.78611 13.009 2.69861 12.3573 2.66861C11.4373 2.62528 11.1157 2.62028 8.99984 2.62028ZM8.99984 0.953613C11.264 0.953613 11.5465 0.961947 12.4348 1.00361C13.3223 1.04528 13.9265 1.18445 14.4582 1.39111C15.0082 1.60278 15.4715 1.88945 15.9348 2.35195C16.3586 2.76853 16.6865 3.27244 16.8957 3.82861C17.1015 4.35945 17.2415 4.96445 17.2832 5.85195C17.3223 6.74028 17.3332 7.02278 17.3332 9.28695C17.3332 11.5511 17.3248 11.8336 17.2832 12.7219C17.2415 13.6094 17.1015 14.2136 16.8957 14.7453C16.6871 15.3018 16.3591 15.8058 15.9348 16.2219C15.5181 16.6455 15.0143 16.9734 14.4582 17.1828C13.9273 17.3886 13.3223 17.5286 12.4348 17.5703C11.5465 17.6094 11.264 17.6203 8.99984 17.6203C6.73567 17.6203 6.45317 17.6119 5.56484 17.5703C4.67734 17.5286 4.07317 17.3886 3.5415 17.1828C2.98511 16.974 2.48111 16.6461 2.06484 16.2219C1.64101 15.8054 1.31311 15.3015 1.104 14.7453C0.897337 14.2144 0.758171 13.6094 0.716504 12.7219C0.677337 11.8336 0.666504 11.5511 0.666504 9.28695C0.666504 7.02278 0.674837 6.74028 0.716504 5.85195C0.758171 4.96361 0.897337 4.36028 1.104 3.82861C1.31253 3.2721 1.64051 2.76805 2.06484 2.35195C2.48123 1.92797 2.98519 1.60005 3.5415 1.39111C4.07317 1.18445 4.6765 1.04528 5.56484 1.00361C6.45317 0.964447 6.73567 0.953613 8.99984 0.953613Z" fill="white"/>
</svg>
