<svg width="24" height="13" viewBox="0 0 24 13" fill="none" xmlns="http://www.w3.org/2000/svg">
<path d="M4 4.00001C4.26522 4.00001 4.51957 4.10537 4.70711 4.2929C4.89464 4.48044 5 4.73479 5 5.00001V12C5 12.2652 4.89464 12.5196 4.70711 12.7071C4.51957 12.8947 4.26522 13 4 13C3.73478 13 3.48043 12.8947 3.29289 12.7071C3.10536 12.5196 3 12.2652 3 12V5.00001C3 4.73479 3.10536 4.48044 3.29289 4.2929C3.48043 4.10537 3.73478 4.00001 4 4.00001ZM7 5.00001C7.26522 5.00001 7.51957 5.10537 7.70711 5.2929C7.89464 5.48044 8 5.73479 8 6.00001V12C8 12.2652 7.89464 12.5196 7.70711 12.7071C7.51957 12.8947 7.26522 13 7 13C6.73478 13 6.48043 12.8947 6.29289 12.7071C6.10536 12.5196 6 12.2652 6 12V6.00001C6 5.73479 6.10536 5.48044 6.29289 5.2929C6.48043 5.10537 6.73478 5.00001 7 5.00001ZM10 1.00001C10.2652 1.00001 10.5196 1.10537 10.7071 1.2929C10.8946 1.48044 11 1.73479 11 2.00001V12C11 12.2652 10.8946 12.5196 10.7071 12.7071C10.5196 12.8947 10.2652 13 10 13C9.73478 13 9.48043 12.8947 9.29289 12.7071C9.10536 12.5196 9 12.2652 9 12V2.00001C9 1.73479 9.10536 1.48044 9.29289 1.2929C9.48043 1.10537 9.73478 1.00001 10 1.00001ZM15 8.31116e-06C16.5524 -4.867e-05 18.0444 0.601574 19.1625 1.67847C20.2806 2.75537 20.9378 4.22372 20.996 5.77501L20.999 6.03501C21.8596 6.15765 22.6437 6.59616 23.1988 7.26517C23.7539 7.93417 24.0401 8.78579 24.0018 9.65423C23.9635 10.5227 23.6034 11.3458 22.9916 11.9633C22.3798 12.5808 21.56 12.9486 20.692 12.995L20.5 13H16.999C16.7441 12.9997 16.499 12.9021 16.3136 12.7272C16.1283 12.5522 16.0168 12.3131 16.0018 12.0586C15.9869 11.8042 16.0697 11.5536 16.2333 11.3582C16.3969 11.1627 16.6289 11.0371 16.882 11.007L17 11H20.447L20.585 10.998C20.9451 10.9786 21.2861 10.8302 21.5456 10.5799C21.8052 10.3296 21.9659 9.99419 21.9983 9.63507C22.0307 9.27595 21.9327 8.91717 21.7222 8.62443C21.5117 8.33168 21.2028 8.12457 20.852 8.04101L20.717 8.01501L18.947 7.76301L19 5.97601L18.996 5.80001C18.9464 4.80938 18.5305 3.87252 17.8291 3.17126C17.1276 2.46999 16.1906 2.05435 15.2 2.00501L15 2.00001C14.732 2.00001 14.469 2.02601 14.212 2.07701L14 2.12601V12C14 12.2449 13.91 12.4813 13.7473 12.6644C13.5845 12.8474 13.3603 12.9644 13.117 12.993L13 13C12.7348 13 12.4804 12.8947 12.2929 12.7071C12.1054 12.5196 12 12.2652 12 12L11.999 0.803008C12.911 0.275291 13.9463 -0.0017493 15 8.31116e-06ZM1 6.00001C1.26522 6.00001 1.51957 6.10537 1.70711 6.2929C1.89464 6.48044 2 6.73479 2 7.00001V11C2 11.2652 1.89464 11.5196 1.70711 11.7071C1.51957 11.8947 1.26522 12 1 12C0.734784 12 0.48043 11.8947 0.292893 11.7071C0.105357 11.5196 0 11.2652 0 11V7.00001C0 6.73479 0.105357 6.48044 0.292893 6.2929C0.48043 6.10537 0.734784 6.00001 1 6.00001Z" fill="black"/>
</svg>
