<svg width="20" height="20" viewBox="0 0 20 20" fill="none" xmlns="http://www.w3.org/2000/svg">
<path d="M10 0C4.5 0 0 4.5 0 10C0 15.5 4.5 20 10 20C15.5 20 20 15.5 20 10C20 4.5 15.55 0 10 0ZM13.75 14.65C11.4 13.2 8.45 12.9 4.95 13.7C4.6 13.8 4.3 13.55 4.2 13.25C4.1 12.9 4.35 12.6 4.65 12.5C8.45 11.65 11.75 12 14.35 13.6C14.7 13.75 14.75 14.15 14.6 14.45C14.4 14.75 14.05 14.85 13.75 14.65ZM14.75 11.95C12.05 10.3 7.95 9.8 4.8 10.8C4.4 10.9 3.95 10.7 3.85 10.3C3.75 9.9 3.95 9.45 4.35 9.35C8 8.25 12.5 8.8 15.6 10.7C15.9 10.85 16.05 11.35 15.8 11.7C15.55 12.05 15.1 12.2 14.75 11.95ZM4.3 7.75C3.8 7.9 3.3 7.6 3.15 7.15C3 6.65 3.3 6.15 3.75 6C7.3 4.95 13.15 5.15 16.85 7.35C17.3 7.6 17.45 8.2 17.2 8.65C16.95 9 16.35 9.15 15.9 8.9C12.7 7 7.35 6.8 4.3 7.75Z" fill="black"/>
</svg>
