<svg width="18" height="15" viewBox="0 0 18 15" fill="none" xmlns="http://www.w3.org/2000/svg">
<path d="M17.4683 2.00038C16.8321 2.28179 16.1574 2.46661 15.4666 2.54871C16.1947 2.11324 16.7397 1.42789 16.9999 0.620381C16.3166 1.02705 15.5674 1.31205 14.7866 1.46621C14.2621 0.905031 13.5669 0.532851 12.809 0.407535C12.0512 0.28222 11.2732 0.410791 10.596 0.773259C9.91875 1.13573 9.38024 1.71178 9.06418 2.41188C8.74812 3.11197 8.67221 3.89686 8.84825 4.64455C7.46251 4.57509 6.10686 4.21498 4.86933 3.5876C3.63179 2.96022 2.54003 2.07959 1.66492 1.00288C1.35516 1.53492 1.19238 2.13974 1.19326 2.75538C1.19326 3.96371 1.80826 5.03121 2.74326 5.65621C2.18993 5.63879 1.64878 5.48937 1.16492 5.22038V5.26371C1.16509 6.06846 1.44356 6.84839 1.95313 7.47126C2.46269 8.09413 3.17199 8.52161 3.96075 8.68121C3.4471 8.82041 2.90851 8.84093 2.38576 8.74121C2.60814 9.43391 3.04159 10.0397 3.62541 10.4738C4.20924 10.9079 4.9142 11.1485 5.64159 11.162C4.91866 11.7298 4.0909 12.1495 3.20566 12.3972C2.32041 12.6448 1.39503 12.7156 0.482422 12.6054C2.0755 13.6299 3.93 14.1738 5.82409 14.172C12.2349 14.172 15.7408 8.86121 15.7408 4.25538C15.7408 4.10538 15.7366 3.95371 15.7299 3.80538C16.4123 3.31219 17.0013 2.70123 17.4691 2.00121L17.4683 2.00038Z" fill="white"/>
</svg>
