<svg width="18" height="14" viewBox="0 0 18 14" fill="none" xmlns="http://www.w3.org/2000/svg">
<path d="M16.9523 2.70227C17.3332 4.18727 17.3332 7.28727 17.3332 7.28727C17.3332 7.28727 17.3332 10.3873 16.9523 11.8723C16.7407 12.6931 16.1215 13.3389 15.3373 13.5573C13.9132 13.9539 8.99984 13.9539 8.99984 13.9539C8.99984 13.9539 4.089 13.9539 2.66234 13.5573C1.87484 13.3356 1.2565 12.6906 1.04734 11.8723C0.666504 10.3873 0.666504 7.28727 0.666504 7.28727C0.666504 7.28727 0.666504 4.18727 1.04734 2.70227C1.259 1.88144 1.87817 1.23561 2.66234 1.01727C4.089 0.620605 8.99984 0.620605 8.99984 0.620605C8.99984 0.620605 13.9132 0.620605 15.3373 1.01727C16.1248 1.23894 16.7432 1.88394 16.9523 2.70227ZM7.33317 10.2039L12.3332 7.28727L7.33317 4.3706V10.2039Z" fill="white"/>
</svg>
