<svg class="svg-icon" style="width: 1em;height: 1em;vertical-align: middle;fill: currentColor;overflow: hidden;" viewBox="0 0 1024 1024" version="1.1" xmlns="http://www.w3.org/2000/svg"><path d="M1014.573167 822.652176L703.950268 512.029277l310.622899-310.622899a31.99659 31.99659 0 0 0 0-45.243179L867.836804 9.426835a31.99659 31.99659 0 0 0-45.243179-0.031996L511.970726 320.017738 201.347827 9.394839a31.932597 31.932597 0 0 0-45.243179 0.031996L9.368284 156.163199a31.99659 31.99659 0 0 0 0 45.243179L319.991184 512.029277 9.368284 822.652176a31.964594 31.964594 0 0 0 0 45.243179l146.736364 146.736363a31.99659 31.99659 0 0 0 45.243179 0L511.970726 704.008819l310.622899 310.622899a31.99659 31.99659 0 0 0 45.243179 0l146.736363-146.736363a31.964594 31.964594 0 0 0 0-45.243179z"  /></svg>